<?xml version="1.0" encoding="UTF-8"?>
<svg width="280px" height="224px" viewBox="0 0 280 224" version="1.1" xmlns="http://www.w3.org/2000/svg" xmlns:xlink="http://www.w3.org/1999/xlink">
    <!-- Generator: Sketch 63.1 (92452) - https://sketch.com -->
    <title>zero_notes</title>
    <desc>Created with Sketch.</desc>
    <defs>
        <radialGradient cx="59.6646918%" cy="32.8126576%" fx="59.6646918%" fy="32.8126576%" r="65.1253785%" gradientTransform="translate(0.596647,0.328127),scale(0.790632,1.000000),rotate(14.104332),translate(-0.596647,-0.328127)" id="radialGradient-1">
            <stop stop-color="#593417" offset="0%"></stop>
            <stop stop-color="#714525" offset="29.84%"></stop>
            <stop stop-color="#8F5C36" offset="74.76%"></stop>
            <stop stop-color="#9B643D" offset="100%"></stop>
        </radialGradient>
    </defs>
    <g id="Designs" stroke="none" stroke-width="1" fill="none" fill-rule="evenodd">
        <g id="D04" transform="translate(-660.000000, -300.000000)" fill-rule="nonzero">
            <g id="zero_notes" transform="translate(659.000000, 299.000000)">
                <g id="Group">
                    <path d="M66.6,16.2 C67.1,14.2 65.9,12.1 63.8,11.6 L22.3,1.1 C20.3,0.6 18.2,1.8 17.7,3.9 L7.4,44.7 L56.4,57 L66.6,16.2 Z" id="Path" fill="#8B8CC7"></path>
                    <path d="M3.9,74.2 L45.5,84.7 C47.5,85.2 49.6,84 50.1,81.9 L56.4,57 L7.4,44.7 L1.1,69.6 C0.6,71.6 1.8,73.7 3.9,74.2 Z" id="Path" fill="#E2E2F6"></path>
                    <g transform="translate(21.000000, 12.000000)">
                        <circle id="Oval" fill="#EE8F94" cx="17.1" cy="16.8" r="16.7"></circle>
                        <path d="M30.2,27 C28.6,25.3 26.5,24.1 24.1,23.5 L7.6,19.3 C5.2,18.7 2.8,18.8 0.6,19.5 C1.7,25.9 6.4,31.3 13,33 C19.6,34.6 26.3,32.1 30.2,27 Z" id="Path" fill="#E2E2F6"></path>
                        <g transform="translate(7.000000, 5.000000)">
                            <path d="M16.9,9.5 L15.3,16 C14.9,17.4 16.6,18.3 17.5,18.6 L13.2,19.7 C9.7,20.4 6,19.4 3.2,17.1 L0.4,14.3 L0.4,14.3 C1.3,14.5 3.2,14.3 3.6,12.9 L5.2,6.4 L16.9,9.5 Z" id="Path" fill="url(#radialGradient-1)"></path>
                            <g transform="translate(2.000000, 4.000000)" fill="#9B643D" id="Oval">
                                <ellipse transform="translate(15.576760, 5.638180) rotate(-75.895668) translate(-15.576760, -5.638180) " cx="15.57676" cy="5.63818" rx="1.60007656" ry="1.50007177"></ellipse>
                                <ellipse transform="translate(2.599580, 2.389740) rotate(-75.895668) translate(-2.599580, -2.389740) " cx="2.59958" cy="2.38974" rx="1.60007656" ry="1.50007177"></ellipse>
                            </g>
                            <path d="M9.5,14.5 L9.3,14.5 C5.7,13.6 3.6,10 4.5,6.4 L4.8,5.2 C5.7,1.6 9.3,-0.5 12.9,0.4 L13.1,0.4 C16.7,1.3 18.8,4.9 17.9,8.5 L17.6,9.7 C16.7,13.2 13.1,15.4 9.5,14.5 Z" id="Path" fill="#9B643D"></path>
                        </g>
                    </g>
                </g>
                <g id="Group" transform="translate(135.000000, 162.000000)">
                    <rect id="Rectangle" fill="#F7C6C8" transform="translate(45.207000, 26.810660) rotate(-66.945109) translate(-45.207000, -26.810660) " x="25.0076609" y="6.61132085" width="40.3986783" height="40.3986783"></rect>
                    <rect id="Rectangle" fill="#EE8F94" transform="translate(51.452025, 12.075735) rotate(-66.945109) translate(-51.452025, -12.075735) " x="47.3021608" y="-8.07360578" width="8.29972846" height="40.2986816"></rect>
                    <rect id="Rectangle" fill="#F7C6C8" transform="translate(27.548520, 35.418540) rotate(-60.368829) translate(-27.548520, -35.418540) " x="7.34912601" y="15.219146" width="40.398788" height="40.398788"></rect>
                    <rect id="Rectangle" fill="#EE8F94" transform="translate(35.505660, 21.427520) rotate(-60.368829) translate(-35.505660, -21.427520) " x="31.3557845" y="1.27812451" width="8.299751" height="40.298791"></rect>
                </g>
                <g id="Group" transform="translate(43.000000, 38.000000)">
                    <path d="M173.3,121.9 L4.9,121.9 C2.3,121.9 0.2,119.8 0.2,117.2 L0.2,9.4 C0.2,6.8 2.3,4.7 4.9,4.7 L173.3,4.7 C175.9,4.7 178,6.8 178,9.4 L178,117.2 C178,119.8 175.9,121.9 173.3,121.9 Z" id="Path" fill="#6264A7"></path>
                    <path d="M172.3,113 L172.3,13.7 C172.3,11.7 170.5,10.2 168.4,10.2 L88.7,10.2 L88.7,116.6 L168.4,116.6 C170.6,116.5 172.3,114.9 172.3,113 Z" id="Path" fill="#EAEAF3"></path>
                    <path d="M10,10.1 C7.8,10.1 6.1,11.7 6.1,13.6 L6.1,113 C6.1,115 7.9,116.5 10,116.5 L88.6,116.5 L88.6,10.1 L10,10.1 Z" id="Path" fill="#FAF9F8"></path>
                    <g transform="translate(103.000000, 24.000000)" fill="#FFFFFF" id="Rectangle">
                        <rect x="0.5" y="0.9" width="54" height="3.3"></rect>
                        <rect x="0.5" y="15.7" width="54" height="3.3"></rect>
                        <rect x="0.5" y="30.2" width="54" height="3.3"></rect>
                        <rect x="0.5" y="45.1" width="54" height="3.3"></rect>
                        <rect x="0.5" y="59.9" width="54" height="3.3"></rect>
                        <rect x="0.5" y="74.4" width="54" height="3.3"></rect>
                    </g>
                    <g transform="translate(20.000000, 24.000000)" fill="#E2E2F6" id="Rectangle">
                        <rect x="0.4" y="0.9" width="54" height="3.3"></rect>
                        <rect x="0.4" y="15.7" width="54" height="3.3"></rect>
                        <rect x="0.4" y="30.2" width="54" height="3.3"></rect>
                        <rect x="0.4" y="45.1" width="54" height="3.3"></rect>
                        <rect x="0.4" y="59.9" width="54" height="3.3"></rect>
                        <rect x="0.4" y="74.4" width="54" height="3.3"></rect>
                    </g>
                    <polygon id="Path" fill="#E3646A" points="107.5 80.5 107.5 0.5 93.9 0.5 93.9 80.5 100.8 72.5"></polygon>
                </g>
                <g id="Group" transform="translate(18.000000, 84.000000)">
                    <path d="M2.7,66.1 L9.9,69.4 L7.8,74 C7.6,74.5 6.9,74.8 6.4,74.5 L1.1,72.1 C0.6,71.9 0.3,71.2 0.6,70.7 L2.7,66.1 Z" id="Path" fill="#EE8F94"></path>
                    <rect id="Rectangle" fill="#FFFFFF" transform="translate(6.408555, 67.421585) rotate(-65.272480) translate(-6.408555, -67.421585) " x="5.05856595" y="63.4216174" width="2.6999781" height="7.99993512"></rect>
                    <path d="M34,2.3 L31,4.5 C31,4.5 31,4.5 30.9,4.6 L38.3,8 L38.3,7.9 L38,4.2 L37.9,2.6 L34.8,1.7 L34,2.3 Z" id="Path" fill="#E1DFDD"></path>
                    <path d="M37,0.2 L34.8,1.8 L37.9,2.7 L37.7,0.6 C37.7,0.1 37.3,0 37,0.2 Z" id="Path" fill="#605D5A"></path>
                    <rect id="Rectangle" fill="#E3646A" transform="translate(20.795930, 36.373080) rotate(-65.272480) translate(-20.795930, -36.373080) " x="-12.4538003" y="32.3231128" width="66.4994607" height="8.09993431"></rect>
                </g>
                <g id="Group" transform="translate(200.000000, 121.000000)">
                    <path d="M78.4,19 L66.9,25.6 C64.4,27.1 61.1,26.2 59.7,23.7 L59.7,23.7 C58.2,21.2 59.1,17.9 61.6,16.5 L73.1,9.9 C75.6,8.4 78.9,9.3 80.3,11.8 L80.3,11.8 C81.8,14.3 80.9,17.6 78.4,19 Z" id="Path" fill="#E1DFDD"></path>
                    <circle id="Oval" fill="#FFFFFF" transform="translate(35.606090, 35.699880) rotate(-80.781636) translate(-35.606090, -35.699880) " cx="35.60609" cy="35.69988" r="30.8004689"></circle>
                    <circle id="Oval" fill="#D8AF91" transform="translate(36.106100, 35.799850) rotate(-80.781636) translate(-36.106100, -35.799850) " cx="36.1061" cy="35.79985" r="25.2003837"></circle>
                </g>
            </g>
        </g>
    </g>
</svg>